# xmcd
#
# Track frame offsets:
#	150
#	11250
#	23250
#	34125
#	46650
#	56250
#	68025
#	83175
#	95400
#	113775
#	127875
#	139800
#	150825
#	164025
#	176550
#	192525
#	204375
#	215700
#
# Disc length: 3066 seconds
#
# Revision: 1
# Processed by: cddbd v1.5.2PL0 Copyright (c) Steve Scherf et al.
# Submitted via: audiograbber 1.83.01
#
DISCID=e40bf812
DTITLE=karoke - R 7
DYEAR=1900
DGENRE=karaoke
TTITLE0=Bill Haley - Rock Around The Clock
TTITLE1=Elvis - Hound Dog
TTITLE2=Roy Orbison - Only The Lonely
TTITLE3=Fats Domino - Ain't That A Shame 
TTITLE4=Elvis - Teddy Bear
TTITLE5=Beach Boys - Surfin' U.S.A.
TTITLE6=Five Satins - In The Still Of The Night
TTITLE7=Buddy Holly - Peggy Sue
TTITLE8=Roy Orbison - Blue Bayou
TTITLE9=Beatles - I Saw Her Standing There
TTITLE10=Beatles - She Loves You
TTITLE11=Beatles - All My Loving
TTITLE12=Neil Sedaka - Happy Birthday Sweet Sixteen
TTITLE13=Brenda Lee - I'm Sorry
TTITLE14=Richie Valens - Donna
TTITLE15=Neil Sedaka - Breaking Up Is Hard To Do
TTITLE16=Richie Valens - Come On Let's Go
TTITLE17=Jambalaya ( On The Bayou) - Hank Williams
EXTD=
EXTT0=
EXTT1=
EXTT2=
EXTT3=
EXTT4=
EXTT5=
EXTT6=
EXTT7=
EXTT8=
EXTT9=
EXTT10=
EXTT11=
EXTT12=
EXTT13=
EXTT14=
EXTT15=
EXTT16=
EXTT17=
PLAYORDER=
